# xmcd
#
# Track frame offsets: 
#        150
#        17361
#        32151
#        54196
#        65165
#        84086
#        107616
#        124281
#        142234
#        158013
#        175682
#        207145
#
# Disc length: 2782 seconds
#
# Revision: 3
# Processed by: cddbd v1.5.2PL0 Copyright (c) Steve Scherf et al.
# Submitted via: ExactAudioCopy v1.0b3
#
DISCID=970adc0c
DTITLE=Erasure - Union Street
DYEAR=2006
DGENRE=Acoustic
TTITLE0=Boy
TTITLE1=Piano Song
TTITLE2=Stay with Me
TTITLE3=Spiralling
TTITLE4=Home
TTITLE5=Tenderest Moments
TTITLE6=Alien
TTITLE7=Blues Away
TTITLE8=How Many Times?
TTITLE9=Love Affair
TTITLE10=Rock Me Gently
TTITLE11=Cover-Track (Data)
EXTD=
EXTT0=
EXTT1=
EXTT2=
EXTT3=
EXTT4=
EXTT5=
EXTT6=
EXTT7=
EXTT8=
EXTT9=
EXTT10=
EXTT11=
PLAYORDER=
